<svg width="21000" height="29700" viewBox="0 0 21000 29700" fill="none" xmlns="http://www.w3.org/2000/svg">
<mask id="mask0_19_21" style="mask-type:luminance" maskUnits="userSpaceOnUse" x="0" y="0" width="21000" height="29700">
<path d="M21000 0H0V29700H21000V0Z" fill="white"/>
</mask>
<g mask="url(#mask0_19_21)">
<path d="M2206 6702C3209 5337 4259 3992 5426 2644C5426 2644 5534 2708 5871 2800C7016 3112 8002 3193 9439 2705C10256 2390 10662 2129 10829 2006C11620 2538 12395 2811 13598 2986C14656 3140 16266 2649 16297 2644C16308 2658 18550 5368 18745 5649C18943 5933 19525 6699 19525 6699C19525 6699 18656 8320 18559 9596C18461 10872 18539 11186 18784 12131C19026 13072 19798 15075 19088 17737C18787 19189 17806 20823 16361 22130C14854 23358 13695 23667 13191 23818C12461 24046 11701 23988 11250 24405C10843 24781 10840 24781 10829 24795C10824 24787 10704 24539 10356 24347C10158 24238 9938 24107 9724 24063C9172 23949 8668 23915 7545 23478C6423 23041 5443 22252 4615 21414C3757 20439 2830 18899 2551 17434C2273 15969 2309 14576 2593 13565C2874 12551 2966 12273 3053 11977C3142 11682 3429 9925 3039 8713C2649 7504 2234 6780 2206 6702Z" fill="#C6A743"/>
<path d="M9838 22548L10292 22539L10473 23213L10634 22534L11088 22525L11102 23639L10824 23645L10813 22793L10604 23648L10350 23653L10119 22807L10133 23656L9852 23662L9838 22548Z" fill="#131610"/>
<path d="M11225 22523L12269 22503L12272 22776L11921 22782L11935 23620L11590 23628L11576 22790L11228 22795L11225 22523Z" fill="#131610"/>
<path d="M16865 6106L18511 7064L17586 7947L17879 9794L15553 8362L16773 8284L16865 8276V6106Z" stroke="#070B04" stroke-width="101" stroke-linejoin="round"/>
<path d="M16865 6106L18511 7064L17586 7947L17879 9794L15553 8362L16773 8284L16865 8276V6106Z" fill="#C9B154"/>
<path d="M16793 8273L15550 8365L15509 7655C16038 7844 16392 8036 16793 8273Z" stroke="#070B04" stroke-width="101" stroke-linejoin="round"/>
<path d="M16793 8273L15550 8365L15509 7655C16038 7844 16392 8036 16793 8273Z" fill="#B3910E"/>
<path d="M4863 6106L3217 7064L4142 7947L3849 9794L6175 8362L4955 8284L4863 8276V6106Z" stroke="#070B04" stroke-width="101" stroke-linejoin="round"/>
<path d="M4863 6106L3217 7064L4142 7947L3849 9794L6175 8362L4955 8284L4863 8276V6106Z" fill="#C9B154"/>
<path d="M4936 8273L6175 8365L6220 7655C5690 7844 5334 8036 4936 8273Z" stroke="#070B04" stroke-width="101" stroke-linejoin="round"/>
<path d="M4936 8273L6175 8365L6220 7655C5690 7844 5334 8036 4936 8273Z" fill="#B3910E"/>
<path d="M16865 19411L18511 18450L17586 17565L17879 15724L15553 17152L16773 17230L16865 17239V19411Z" stroke="#070B04" stroke-width="101" stroke-linejoin="round"/>
<path d="M16865 19411L18511 18450L17586 17565L17879 15724L15553 17152L16773 17230L16865 17239V19411Z" fill="#C9B154"/>
<path d="M16793 17244L15550 17155L15509 17866C16038 17673 16392 17481 16793 17244Z" stroke="#070B04" stroke-width="101" stroke-linejoin="round"/>
<path d="M16793 17244L15550 17155L15509 17866C16038 17673 16392 17481 16793 17244Z" fill="#B3910E"/>
<path d="M4863 19411L3217 18450L4142 17565L3849 15724L6175 17152L4955 17230L4863 17239V19411Z" stroke="#070B04" stroke-width="101" stroke-linejoin="round"/>
<path d="M4863 19411L3217 18450L4142 17565L3849 15724L6175 17152L4955 17230L4863 17239V19411Z" fill="#C9B154"/>
<path d="M10863 6777C8916 6777 6919 7176 4860 8278V6106V5048C6874 4254 8877 3894 10863 3894C12851 3894 14854 4254 16868 5048V6106V8278C14809 7176 12812 6777 10863 6777Z" stroke="#070B04" stroke-width="122" stroke-linejoin="round"/>
<path d="M10863 6777C8916 6777 6919 7176 4860 8278V6106V5048C6874 4254 8877 3894 10863 3894C12851 3894 14854 4254 16868 5048V6106V8278C14809 7176 12812 6777 10863 6777Z" fill="#C6A743"/>
<path d="M5986 5351L6774 5134C6944 5089 7075 5103 7158 5178C7245 5256 7289 5387 7289 5571C7289 5763 7242 5925 7147 6059C7055 6192 6913 6284 6721 6337L6459 6407V7103L5986 7234V5351ZM6459 6028L6576 5995C6668 5969 6735 5933 6771 5883C6807 5833 6827 5780 6827 5716C6827 5658 6810 5610 6779 5580C6746 5546 6685 5543 6596 5566L6459 5605V6028ZM7473 5875C7473 5566 7543 5315 7685 5123C7827 4931 8024 4814 8278 4772C8543 4730 8743 4783 8882 4928C9024 5075 9094 5298 9094 5602C9094 5822 9063 6008 9002 6159C8941 6307 8852 6432 8735 6529C8618 6624 8473 6688 8297 6713C8122 6741 7977 6733 7860 6683C7746 6632 7651 6540 7582 6407C7509 6273 7473 6095 7473 5875ZM7955 5800C7955 5989 7983 6123 8041 6195C8102 6268 8180 6298 8284 6281C8387 6265 8470 6212 8526 6120C8584 6031 8612 5880 8612 5669C8612 5490 8582 5368 8523 5295C8462 5223 8381 5195 8278 5212C8180 5226 8102 5282 8044 5373C7983 5465 7955 5607 7955 5800ZM9370 4649L9854 4616V6036L10615 5983V6446L9370 6529V4649ZM10857 4585L11345 4599V6482L10857 6468V4585ZM11094 4098L11470 4106L11122 4479L10913 4474L11094 4098ZM12737 5825L13161 6034C13133 6173 13088 6287 13024 6373C12963 6462 12888 6524 12798 6560C12707 6596 12590 6607 12450 6588C12280 6566 12141 6518 12033 6443C11924 6371 11832 6254 11754 6095C11676 5936 11637 5738 11637 5502C11637 5192 11704 4961 11843 4814C11980 4666 12175 4607 12428 4641C12626 4666 12782 4733 12893 4844C13007 4956 13091 5112 13144 5318L12718 5376C12704 5318 12687 5273 12670 5245C12645 5198 12612 5159 12573 5131C12534 5100 12489 5084 12439 5078C12331 5061 12247 5103 12189 5204C12144 5276 12122 5396 12122 5563C12122 5775 12147 5919 12200 6003C12253 6086 12328 6137 12422 6148C12514 6162 12587 6139 12634 6084C12682 6025 12715 5942 12737 5825ZM13403 4825L13885 4922V6805L13403 6708V4825ZM15174 6864L14640 6696L14564 6981L14083 6830L14656 5128L15172 5290L15743 7351L15250 7195L15174 6864ZM15074 6423L14907 5694L14740 6320L15074 6423Z" fill="#070B04"/>
<path d="M4936 17244L6175 17155L6220 17866C5690 17673 5334 17481 4936 17244Z" stroke="#070B04" stroke-width="101" stroke-linejoin="round"/>
<path d="M4936 17244L6175 17155L6220 17866C5690 17673 5334 17481 4936 17244Z" fill="#B3910E"/>
<path d="M8556 7443C7701 7713 6947 8226 6278 8941L6980 8872L6863 9498C7426 9064 8005 8655 8673 8401L8556 7443Z" stroke="#1B1918" stroke-width="47" stroke-linejoin="round"/>
<path d="M8556 7443C7701 7713 6947 8226 6278 8941L6980 8872L6863 9498C7426 9064 8005 8655 8673 8401L8556 7443Z" fill="#006AB3"/>
<path d="M8548 7462L8971 8671L8465 8836L7657 8504L8548 7462Z" stroke="#1B1918" stroke-width="47" stroke-linejoin="round"/>
<path d="M8548 7462L8971 8671L8465 8836L7657 8504L8548 7462Z" fill="#006AB3"/>
<path d="M13172 7429C14024 7699 14779 8209 15450 8927L14745 8858L14865 9485C14303 9047 13720 8641 13055 8387L13172 7429Z" stroke="#1B1918" stroke-width="47" stroke-linejoin="round"/>
<path d="M13169 7429C14024 7699 14779 8209 15450 8927L14745 8858L14865 9485C14303 9047 13720 8641 13055 8387L13169 7429Z" fill="#006AB3"/>
<path d="M13180 7451L12760 8660L13266 8824L14074 8493L13180 7451Z" stroke="#1B1918" stroke-width="47" stroke-linejoin="round"/>
<path d="M13180 7451L12760 8660L13266 8824L14074 8493L13180 7451Z" fill="#006AB3"/>
<path d="M7612 8383C9712 7328 11918 7253 14110 8400C14007 8726 13849 9016 13587 9233C11684 8147 9880 8186 8158 9239C7869 9027 7679 8704 7612 8383Z" stroke="#1B1918" stroke-width="47" stroke-linejoin="round"/>
<path d="M7612 8383C9712 7328 11918 7253 14110 8400C14007 8726 13849 9016 13587 9233C11684 8147 9880 8186 8158 9239C7869 9027 7679 8704 7612 8383Z" fill="#006AB3"/>
<path d="M8105 8833L7980 8532L8075 8493C8114 8473 8136 8465 8150 8465C8169 8462 8186 8465 8206 8476C8222 8485 8239 8504 8247 8526C8256 8546 8258 8563 8258 8579C8256 8593 8253 8607 8245 8618C8239 8629 8228 8638 8219 8646C8206 8655 8186 8666 8158 8677L8119 8694L8167 8808L8105 8833ZM8061 8557L8097 8643L8130 8629C8153 8618 8169 8610 8178 8604C8183 8596 8186 8590 8189 8582C8189 8571 8189 8563 8186 8554C8180 8543 8172 8535 8167 8529C8155 8526 8144 8526 8133 8529C8128 8529 8114 8535 8089 8546L8061 8557ZM8320 8568C8309 8538 8303 8510 8306 8485C8306 8465 8311 8448 8320 8432C8325 8415 8336 8401 8348 8390C8367 8373 8387 8362 8409 8354C8456 8334 8498 8334 8534 8356C8573 8373 8601 8409 8618 8457C8637 8507 8637 8551 8621 8590C8604 8627 8573 8655 8526 8671C8481 8688 8440 8688 8403 8668C8367 8652 8336 8618 8320 8568ZM8384 8543C8398 8579 8414 8602 8437 8613C8459 8627 8481 8627 8506 8618C8531 8610 8551 8593 8559 8568C8568 8546 8565 8518 8554 8479C8540 8446 8523 8423 8501 8409C8478 8398 8456 8398 8431 8407C8406 8415 8387 8432 8378 8454C8367 8479 8373 8507 8384 8543ZM8724 8593L8941 8521L8924 8468L8768 8521L8685 8259L8623 8281L8724 8593ZM8985 8507L8896 8189L8960 8173L9047 8490L8985 8507ZM8882 8175L8921 8164L8963 8081L8894 8103L8882 8175ZM9281 8298C9281 8323 9275 8345 9270 8359C9258 8373 9247 8384 9228 8387C9205 8393 9183 8390 9166 8379C9147 8362 9133 8334 9122 8295C9111 8256 9111 8226 9122 8206C9130 8187 9147 8173 9172 8167C9189 8162 9203 8162 9219 8170C9233 8175 9244 8187 9250 8203L9311 8170C9297 8145 9281 8131 9264 8120C9233 8103 9197 8100 9161 8109C9116 8123 9083 8148 9063 8184C9044 8220 9041 8265 9055 8317C9069 8368 9094 8407 9127 8426C9164 8448 9203 8454 9242 8443C9278 8432 9303 8418 9320 8393C9339 8370 9348 8343 9348 8301L9281 8298ZM9423 8384L9350 8064L9414 8050L9490 8370L9423 8384ZM9841 8295L9771 8309L9726 8245L9601 8270L9590 8354L9520 8368L9579 8017L9646 8003L9841 8295ZM9696 8192L9626 8084L9609 8214L9696 8192ZM10072 7930L10136 7922L10166 8128C10172 8153 10172 8175 10169 8189C10164 8212 10155 8226 10141 8242C10125 8253 10102 8265 10077 8267C10044 8273 10019 8267 9999 8251C9980 8237 9969 8212 9963 8175L10022 8162C10027 8178 10030 8189 10035 8198C10044 8209 10055 8214 10072 8212C10086 8209 10094 8203 10100 8192C10105 8187 10105 8167 10102 8139L10072 7930ZM10225 7911L10295 7908L10306 8084C10308 8111 10311 8131 10311 8136C10317 8153 10325 8162 10336 8167C10347 8178 10361 8178 10378 8178C10398 8178 10411 8170 10420 8162C10431 8156 10437 8145 10437 8136V8078L10423 7897L10487 7894L10501 8064C10503 8103 10503 8131 10501 8148C10498 8164 10492 8178 10484 8189C10473 8203 10462 8212 10448 8220C10431 8226 10411 8231 10384 8234C10353 8237 10328 8234 10311 8228C10295 8220 10283 8214 10272 8203C10264 8192 10256 8181 10253 8167C10247 8150 10242 8123 10239 8086L10225 7911ZM10581 7880H10701C10726 7880 10749 7883 10765 7889C10785 7894 10801 7902 10813 7916C10827 7933 10838 7950 10843 7969C10852 7992 10854 8017 10854 8047C10854 8075 10852 8097 10843 8117C10838 8142 10827 8162 10810 8175C10799 8187 10785 8195 10765 8201C10749 8206 10729 8206 10704 8206H10581V7880ZM10645 7936V8153H10696C10715 8153 10726 8153 10737 8150C10746 8148 10757 8145 10765 8136C10771 8131 10776 8120 10779 8106C10785 8089 10788 8070 10788 8045C10788 8019 10785 8000 10779 7986C10776 7972 10768 7961 10760 7955C10754 7947 10743 7941 10732 7939C10723 7936 10704 7936 10676 7936H10645ZM10913 7877H10977V8203H10913V7877ZM11253 8092L11317 8114C11306 8150 11289 8175 11267 8192C11242 8209 11214 8217 11177 8214C11133 8214 11099 8198 11072 8167C11044 8136 11033 8095 11035 8042C11038 7992 11052 7947 11080 7916C11111 7889 11150 7877 11194 7877C11233 7880 11267 7891 11292 7916C11303 7930 11314 7950 11322 7978L11255 7992C11253 7972 11244 7961 11233 7950C11222 7939 11205 7933 11189 7933C11164 7933 11144 7941 11130 7958C11113 7975 11105 8003 11102 8042C11102 8081 11108 8111 11122 8131C11136 8148 11155 8159 11180 8159C11197 8162 11211 8153 11225 8145C11239 8134 11250 8114 11253 8092ZM11370 8220L11392 7894L11456 7897L11436 8226L11370 8220ZM11793 8253L11721 8248L11698 8173L11570 8162L11534 8234L11464 8226L11620 7911L11690 7916L11793 8253ZM11682 8114L11645 7992L11595 8109L11682 8114ZM11618 7894L11654 7830L11723 7836L11659 7897L11618 7894ZM11826 8265L11879 7941L12016 7961C12052 7967 12074 7975 12091 7983C12105 7992 12116 8003 12122 8019C12130 8036 12133 8053 12127 8072C12124 8097 12113 8117 12097 8131C12080 8145 12058 8150 12030 8148C12044 8162 12052 8170 12060 8181C12069 8192 12077 8214 12088 8240L12119 8309L12041 8298L12005 8220C11991 8192 11982 8173 11977 8167C11971 8159 11968 8153 11960 8150C11955 8145 11943 8145 11927 8142L11916 8139L11893 8273L11826 8265ZM11921 8086L11971 8095C12002 8100 12021 8103 12030 8100C12038 8100 12046 8095 12052 8089C12055 8084 12060 8075 12060 8067C12063 8056 12060 8045 12058 8039C12052 8031 12044 8025 12035 8022C12030 8019 12013 8017 11988 8014L11935 8006L11921 8086ZM12152 8317L12214 8000L12278 8011L12216 8331L12152 8317ZM12562 8412L12509 8061L12439 8045L12241 8334L12311 8356L12353 8284L12481 8315L12492 8398L12562 8412ZM12473 8256L12383 8237L12456 8128L12473 8256ZM12952 8398L13007 8437C12988 8468 12966 8490 12938 8499C12913 8510 12882 8510 12849 8501C12807 8487 12776 8465 12757 8429C12740 8393 12737 8351 12751 8298C12765 8245 12790 8206 12826 8187C12860 8164 12902 8162 12946 8173C12985 8187 13010 8203 13030 8237C13038 8253 13044 8276 13044 8301L12977 8298C12980 8281 12977 8267 12966 8253C12957 8242 12946 8234 12927 8226C12904 8220 12882 8223 12863 8237C12843 8248 12829 8273 12818 8312C12807 8354 12804 8384 12815 8407C12824 8426 12840 8440 12863 8446C12879 8454 12896 8451 12913 8443C12927 8434 12938 8421 12952 8398ZM13030 8554L13094 8574L13194 8259L13133 8240L13030 8554ZM13227 8627L13230 8276L13300 8301L13294 8560L13453 8359L13517 8382L13294 8649L13227 8627ZM13436 8705L13498 8730L13615 8426L13553 8401L13436 8705ZM13556 8755L13681 8457L13746 8482L13640 8730L13790 8794L13768 8847L13556 8755Z" fill="white"/>
<path d="M12528 10454C12528 10454 12314 10546 11904 10317" stroke="#1B1918" stroke-width="19" stroke-linecap="round" stroke-linejoin="round"/>
<path d="M11904 10315L11776 10576L11559 10312L11361 10518L11186 10398L11080 10518L10921 10398L10871 10518L10746 10384L10634 10518L10528 10381L10345 10596L10194 10384L9991 10624L9696 10448" stroke="#1B1918" stroke-width="19" stroke-linecap="round" stroke-linejoin="round"/>
<path d="M9698 10448C9584 10512 9328 10451 9328 10451" stroke="#1B1918" stroke-width="19" stroke-linecap="round" stroke-linejoin="round"/>
<path d="M14387 10050L14972 10212C15077 10243 14874 10340 14682 10307C14545 10485 14325 10373 14220 10415C14066 10477 13869 10443 13749 10443C13501 10560 13328 10424 13281 10443C13156 10482 13019 10446 12969 10460C12596 10527 12551 10424 12504 10443C12242 10532 11955 10351 11916 10323L11791 10585L11560 10323L11342 10524L11192 10410L11069 10532L10925 10399L10883 10552L10746 10407L10629 10532L10537 10399L10354 10602L10195 10399L9978 10627L9699 10460L9384 10463C9206 10482 9081 10477 8897 10443C8666 10399 8721 10516 8585 10424C8387 10499 8150 10499 8092 10443C8008 10418 7805 10527 7641 10399C7482 10415 7279 10443 7178 10315C7008 10304 6969 10304 6866 10212C7095 10223 7295 10162 7476 10064C6939 10387 6359 10095 6485 10095C6613 10095 7479 9791 7708 9730C7936 9666 8978 9312 8978 9312C8978 9312 9382 9064 9602 9156C9824 9245 9582 9062 10036 9421C10487 9777 10560 9337 10560 9335C10571 9231 10574 9229 10465 9126C10345 9000 10234 9000 10122 9042C10047 8719 10699 8791 10652 8722C10604 8652 10677 8602 11019 8608C11359 8613 11284 8992 11284 8992L11373 8914L11292 9337C11295 9337 11367 9777 11819 9421C12273 9062 12030 9245 12253 9156C12473 9064 12877 9312 12877 9312C12877 9312 13919 9666 14147 9730C14376 9791 15242 10095 15370 10095C15498 10095 15142 10262 14821 10181C14501 10098 14412 10059 14387 10050Z" fill="#E30016"/>
<path d="M14387 10050L14972 10212C15077 10243 14874 10340 14682 10307C14545 10485 14325 10373 14220 10415C14066 10477 13869 10443 13749 10443C13501 10560 13328 10424 13281 10443C13156 10482 13019 10446 12969 10460C12596 10527 12551 10424 12504 10443C12242 10532 11955 10351 11916 10323L11791 10585L11560 10323L11342 10524L11192 10410L11069 10532L10925 10399L10883 10552L10746 10407L10629 10532L10537 10399L10354 10602L10195 10399L9978 10627L9699 10460L9384 10463C9206 10482 9081 10477 8897 10443C8666 10399 8721 10516 8585 10424C8387 10499 8150 10499 8092 10443C8008 10418 7805 10527 7641 10399C7482 10415 7279 10443 7178 10315C7008 10304 6969 10304 6866 10212C7095 10223 7295 10162 7476 10064C6939 10387 6359 10095 6485 10095C6613 10095 7479 9791 7708 9730C7936 9666 8978 9312 8978 9312C8978 9312 9382 9064 9602 9156C9824 9245 9582 9062 10036 9421C10487 9777 10560 9337 10560 9335C10571 9231 10574 9229 10465 9126C10345 9000 10234 9000 10122 9042C10047 8719 10699 8791 10652 8722C10604 8652 10677 8602 11019 8608C11359 8613 11284 8992 11284 8992L11373 8914L11292 9337C11295 9337 11367 9777 11819 9421C12273 9062 12030 9245 12253 9156C12473 9064 12877 9312 12877 9312C12877 9312 13919 9666 14147 9730C14376 9791 15242 10095 15370 10095C15498 10095 15142 10262 14821 10181C14501 10098 14412 10059 14387 10050Z" stroke="#1B1918" stroke-width="21" stroke-linejoin="round"/>
<path d="M12450 10248C12450 10248 12417 10549 11963 10181" stroke="#1B1918" stroke-width="19" stroke-linecap="round" stroke-linejoin="round"/>
<path d="M12771 10217C12771 10217 12779 10565 12214 10061" stroke="#1B1918" stroke-width="19" stroke-linecap="round" stroke-linejoin="round"/>
<path d="M13133 10192C13133 10192 13085 10518 12506 10017" stroke="#1B1918" stroke-width="19" stroke-linecap="round" stroke-linejoin="round"/>
<path d="M13564 10159C13564 10159 13333 10437 12835 9983" stroke="#1B1918" stroke-width="19" stroke-linecap="round" stroke-linejoin="round"/>
<path d="M13968 10114C13968 10114 13812 10354 13188 9978" stroke="#1B1918" stroke-width="19" stroke-linecap="round" stroke-linejoin="round"/>
<path d="M14230 10047C14230 10047 14105 10287 13481 9919" stroke="#1B1918" stroke-width="19" stroke-linecap="round" stroke-linejoin="round"/>
<path d="M14567 9861C14567 9861 14562 10340 13615 9810" stroke="#1B1918" stroke-width="19" stroke-linecap="round" stroke-linejoin="round"/>
<path d="M12954 10440C12954 10440 12601 10562 12294 10367" stroke="#1B1918" stroke-width="19" stroke-linecap="round" stroke-linejoin="round"/>
<path d="M13275 10429C13275 10429 13124 10546 12601 10328" stroke="#1B1918" stroke-width="19" stroke-linecap="round" stroke-linejoin="round"/>
<path d="M13759 10426C13759 10426 13562 10629 13030 10289" stroke="#1B1918" stroke-width="19" stroke-linecap="round" stroke-linejoin="round"/>
<path d="M14213 10390C14213 10390 13971 10635 13367 10234" stroke="#1B1918" stroke-width="19" stroke-linecap="round" stroke-linejoin="round"/>
<path d="M14690 10309C14690 10309 14509 10613 13690 10181" stroke="#1B1918" stroke-width="19" stroke-linecap="round" stroke-linejoin="round"/>
<path d="M14985 10206C14985 10206 14885 10471 14088 10122" stroke="#1B1918" stroke-width="19" stroke-linecap="round" stroke-linejoin="round"/>
<path d="M9406 10248C9406 10248 9439 10549 9893 10181" stroke="#1B1918" stroke-width="19" stroke-linecap="round" stroke-linejoin="round"/>
<path d="M9088 10217C9088 10217 9083 10565 9646 10061" stroke="#1B1918" stroke-width="19" stroke-linecap="round" stroke-linejoin="round"/>
<path d="M8724 10192C8724 10192 8771 10518 9350 10017" stroke="#1B1918" stroke-width="19" stroke-linecap="round" stroke-linejoin="round"/>
<path d="M8292 10159C8292 10159 8520 10437 9022 9983" stroke="#1B1918" stroke-width="19" stroke-linecap="round" stroke-linejoin="round"/>
<path d="M7888 10114C7888 10114 8041 10354 8668 9978" stroke="#1B1918" stroke-width="19" stroke-linecap="round" stroke-linejoin="round"/>
<path d="M7626 10047C7626 10047 7752 10287 8375 9919" stroke="#1B1918" stroke-width="19" stroke-linecap="round" stroke-linejoin="round"/>
<path d="M7289 9861C7289 9861 7292 10340 8242 9810" stroke="#1B1918" stroke-width="19" stroke-linecap="round" stroke-linejoin="round"/>
<path d="M8902 10440C8902 10440 9256 10562 9562 10367" stroke="#1B1918" stroke-width="19" stroke-linecap="round" stroke-linejoin="round"/>
<path d="M8582 10429C8582 10429 8729 10546 9256 10328" stroke="#1B1918" stroke-width="19" stroke-linecap="round" stroke-linejoin="round"/>
<path d="M8100 10426C8100 10426 8295 10629 8829 10289" stroke="#1B1918" stroke-width="19" stroke-linecap="round" stroke-linejoin="round"/>
<path d="M7646 10390C7646 10390 7885 10635 8492 10234" stroke="#1B1918" stroke-width="19" stroke-linecap="round" stroke-linejoin="round"/>
<path d="M7167 10309C7167 10309 7345 10613 8167 10181" stroke="#1B1918" stroke-width="19" stroke-linecap="round" stroke-linejoin="round"/>
<path d="M6874 10206C6874 10206 6974 10471 7771 10122" stroke="#1B1918" stroke-width="19" stroke-linecap="round" stroke-linejoin="round"/>
<path d="M10712 8755C10760 8710 10843 8674 10927 8668L10877 8763C10838 8719 10774 8724 10712 8755Z" fill="#1B1918"/>
<path d="M10712 8755C10760 8710 10843 8674 10927 8668L10877 8763C10838 8719 10774 8724 10712 8755Z" stroke="#1B1918" stroke-width="19"/>
<path d="M10122 9033C10158 8963 10225 8933 10311 8966C10247 8980 10180 9005 10122 9033Z" fill="#1B1918"/>
<path d="M9540 9317C9439 9329 9348 9315 9258 9267C9334 9203 9425 9189 9523 9189C9434 9203 9364 9228 9320 9262C9387 9303 9459 9317 9540 9317Z" fill="#1B1918"/>
<path d="M12300 9317C12397 9329 12492 9315 12581 9267C12506 9203 12411 9189 12317 9189C12403 9203 12475 9228 12517 9262C12453 9303 12378 9317 12300 9317Z" fill="#1B1918"/>
<path d="M9802 11186L12021 11099V10904C12024 10849 11991 10796 12083 10779C12205 10779 12046 10654 12138 10662C12247 10670 12253 10654 12172 10565C12166 10553 12177 10467 12163 10411C12158 10370 12133 10350 12105 10378L12044 10431C12016 10456 11988 10456 11963 10425C11941 10370 11910 10339 11885 10286C11849 10230 11810 10214 11774 10283L11735 10345C11701 10392 11662 10400 11618 10356C11570 10308 11411 10080 11392 10239C11384 10311 11356 10339 11308 10336L11141 10202C11074 10152 11038 10175 11049 10253C11052 10322 11049 10475 10955 10345C10921 10289 10888 10236 10852 10183C10810 10239 10790 10300 10754 10347C10707 10414 10668 10409 10657 10339V10241C10662 10172 10626 10163 10551 10211L10450 10280C10356 10345 10336 10356 10322 10267C10314 10155 10272 10147 10200 10236L10111 10339C10005 10448 9980 10347 9921 10269C9880 10208 9846 10239 9821 10292L9774 10392C9743 10456 9712 10503 9659 10431C9595 10347 9540 10333 9548 10425L9556 10556C9551 10584 9542 10604 9537 10634C9537 10659 9595 10651 9618 10656C9648 10654 9554 10757 9609 10765C9640 10768 9665 10737 9693 10771L9802 11186Z" stroke="#1B1918" stroke-width="35" stroke-linejoin="round"/>
<path d="M9802 11186L12021 11099V10904C12024 10849 11991 10796 12083 10779C12205 10779 12046 10654 12138 10662C12247 10670 12253 10654 12172 10565C12166 10553 12177 10467 12163 10411C12158 10370 12133 10350 12105 10378L12044 10431C12016 10456 11988 10456 11963 10425C11941 10370 11910 10339 11885 10286C11849 10230 11810 10214 11774 10283L11735 10345C11701 10392 11662 10400 11618 10356C11570 10308 11411 10080 11392 10239C11384 10311 11356 10339 11308 10336L11141 10202C11074 10152 11038 10175 11049 10253C11052 10322 11049 10475 10955 10345C10921 10289 10888 10236 10852 10183C10810 10239 10790 10300 10754 10347C10707 10414 10668 10409 10657 10339V10241C10662 10172 10626 10163 10551 10211L10450 10278C10356 10345 10336 10356 10322 10267C10314 10155 10272 10147 10200 10236L10111 10339C10005 10448 9980 10347 9921 10269C9880 10208 9846 10239 9821 10292L9774 10392C9743 10456 9712 10503 9659 10431C9595 10347 9540 10333 9548 10425L9556 10556C9551 10584 9542 10604 9537 10634C9537 10659 9595 10651 9618 10656C9648 10654 9554 10757 9609 10765C9640 10768 9665 10737 9693 10771L9802 11186Z" fill="#E30016"/>
<path d="M10364 11125L10409 11033L10342 10883L10392 10735V10560L10640 10532L10760 10457L10840 10479L10960 10451L11035 10523L11267 10549L11328 10735L11400 10833L11342 11005L11350 11131L10364 11125Z" stroke="#1B1918" stroke-width="35" stroke-linejoin="round"/>
<path d="M10364 11125L10409 11033L10342 10883L10392 10735V10560L10640 10532L10760 10457L10840 10479L10960 10451L11035 10523L11267 10549L11328 10735L11400 10833L11342 11005L11350 11131L10364 11125Z" fill="#C6A743"/>
<path d="M10044 10588L10030 10743L10542 10827L10584 10663L10044 10588Z" stroke="#1B1918" stroke-width="26"/>
<path d="M10044 10588L10030 10743L10542 10827L10584 10663L10044 10588Z" fill="#FFEC00"/>
<path d="M11687 10593L11698 10749L11183 10833L11144 10668L11687 10593Z" stroke="#1B1918" stroke-width="26"/>
<path d="M11687 10593L11698 10749L11183 10833L11144 10668L11687 10593Z" fill="#FFEC00"/>
<path d="M10019 10808L10005 10961L10462 11022L10473 10860L10019 10808Z" stroke="#1B1918" stroke-width="26"/>
<path d="M10019 10810L10005 10964L10462 11025L10473 10863L10019 10810Z" fill="#FFEC00"/>
<path d="M11709 10816L11723 10969L11267 11030L11255 10869L11709 10816Z" stroke="#1B1918" stroke-width="26"/>
<path d="M11709 10816L11723 10969L11267 11030L11255 10869L11709 10816Z" fill="#FFEC00"/>
<path d="M12927 14370C13211 13791 13389 13114 13523 12406L13899 12961L14350 12707C14294 13247 14194 13752 13915 14139L12927 14370Z" stroke="#1B1918" stroke-width="46" stroke-linejoin="round"/>
<path d="M12924 14373C13208 13793 13386 13117 13520 12409L13896 12963L14347 12710C14291 13250 14191 13754 13913 14142L12924 14373Z" fill="#E30016"/>
<path d="M12500 16403L12091 15905L12344 15389" stroke="#1B1918" stroke-width="26"/>
<path d="M12932 14370L13172 14612C13367 14345 13542 14066 13701 13779C13701 13779 12916 14350 12932 14370Z" stroke="#1B1918" stroke-width="46" stroke-linejoin="round"/>
<path d="M12932 14370L13172 14612C13367 14345 13542 14066 13701 13779C13701 13779 12916 14350 12932 14370Z" fill="#E30016"/>
<path d="M8774 14370C8484 13791 8309 13114 8175 12406L7796 12961L7350 12707C7403 13247 7506 13752 7779 14139L8774 14370Z" stroke="#1B1918" stroke-width="46" stroke-linejoin="round"/>
<path d="M8774 14373C8484 13793 8309 13117 8175 12409L7796 12963L7350 12710C7403 13250 7506 13754 7779 14142L8774 14373Z" fill="#E30016"/>
<path d="M8788 14370L8548 14612C8350 14345 8178 14066 8019 13779C8019 13779 8807 14350 8788 14370Z" stroke="#1B1918" stroke-width="46" stroke-linejoin="round"/>
<path d="M8788 14370L8548 14612C8350 14345 8178 14066 8019 13779C8019 13779 8807 14350 8788 14370Z" fill="#E30016"/>
<path d="M9378 15389C8710 14930 8331 14373 8036 13788L7169 14105C7545 15063 8189 15857 9222 16403L9632 15905L9378 15389Z" stroke="#1B1918" stroke-width="46" stroke-linejoin="round"/>
<path d="M9378 15389C8710 14930 8331 14373 8036 13788L7169 14105C7545 15063 8189 15857 9222 16403L9632 15905L9378 15389Z" fill="#E30016"/>
<path d="M9219 16403L9632 15905L9375 15389" stroke="#1B1918" stroke-width="26"/>
<path d="M9565 16116L9244 16445L8796 15763L9565 16116Z" stroke="#1B1918" stroke-width="46" stroke-linejoin="round"/>
<path d="M9565 16116L9244 16445L8796 15763L9565 16116Z" fill="#E30016"/>
<path d="M12097 10755L12718 11236L12570 11565V13679C12581 15804 9286 15894 9286 13688V11551L9150 11245L9790 10749L10155 11044L11726 11047L12097 10755Z" stroke="#1B1918" stroke-width="34"/>
<path d="M12097 10755L12718 11236L12570 11565V13679C12581 15804 9286 15894 9286 13688V11551L9150 11245L9790 10749L10155 11044L11726 11047L12097 10755Z" fill="#006AB3"/>
<path d="M9472 12334C9575 12348 9667 12348 9748 12334C9798 12353 9859 12359 9937 12334C9985 12351 10032 12362 10079 12367H10221C10299 12365 10338 12337 10344 12287L10333 12186C10358 12158 10380 12125 10391 12080C10408 12033 10408 11989 10386 11950L10408 11869L10425 11933L10455 12019C10480 12028 10486 12061 10492 12097C10500 12158 10514 12209 10533 12248C10628 12281 10695 12334 10734 12406L12143 12426L12416 12459C12386 12626 12336 12741 12274 12827C12252 12910 12252 12966 12263 13005C12271 13064 12269 13108 12263 13142C12238 13208 12260 13292 12299 13376C12294 13431 12249 13518 12185 13623C12205 13757 12185 13855 12113 13894C12071 13896 12029 13963 11987 14055L11893 14103C11843 14203 11759 14303 11659 14403L11653 14685C11570 14687 11597 14674 11600 14601C11617 14520 11595 14481 11533 14476C11500 14559 11427 14587 11299 14545C11088 14654 11065 14476 10957 14476L10801 14501C10703 14495 10684 14662 10656 14646L10486 14621C10430 14587 10389 14543 10372 14473L10280 14417C10247 14320 10430 14225 10202 14228L9918 14281C9890 14139 9848 14011 9773 13927C9784 13869 9843 13869 9801 13785C9779 13754 9765 13707 9765 13637L9968 13362L9954 13256C9990 13214 9976 13153 9918 13080C9985 12908 9935 12863 9818 12891C9795 12835 9731 12813 9631 12835C9581 12846 9531 12846 9489 12827C9503 12780 9506 12735 9475 12710V12629L9478 12476C9450 12451 9450 12404 9472 12334Z" fill="white"/>
<path d="M8852 18055C8128 17788 7487 17272 6922 16556L7515 16626L7417 15999C7894 16434 8387 16843 8952 17097L8852 18055Z" stroke="#1B1918" stroke-width="46"/>
<path d="M8852 18055C8128 17788 7487 17272 6922 16556L7515 16626L7417 15999C7894 16434 8387 16843 8952 17097L8852 18055Z" fill="#006AB3"/>
<path d="M8841 18035L9200 16827L8771 16662L8086 16996L8841 18035Z" stroke="#1B1918" stroke-width="46" stroke-linejoin="round"/>
<path d="M8841 18035L9200 16827L8771 16662L8086 16996L8841 18035Z" fill="#006AB3"/>
<path d="M12762 18066C13484 17796 14124 17283 14693 16568L14096 16637L14197 16010C13720 16445 13227 16854 12662 17108L12762 18066Z" stroke="#1B1918" stroke-width="46"/>
<path d="M12762 18066C13484 17796 14124 17283 14693 16568L14096 16637L14197 16010C13720 16445 13227 16854 12662 17108L12762 18066Z" fill="#006AB3"/>
<path d="M12771 18047L12411 16838L12843 16673L13525 17005L12771 18047Z" stroke="#1B1918" stroke-width="46" stroke-linejoin="round"/>
<path d="M12771 18047L12411 16838L12840 16673L13525 17005L12771 18047Z" fill="#006AB3"/>
<path d="M8052 17113C9832 18169 11701 18244 13556 17097C13473 16771 13339 16481 13113 16264C11503 17350 9974 17311 8515 16258C8270 16467 8108 16793 8052 17113Z" stroke="#1B1918" stroke-width="46"/>
<path d="M8052 17113C9832 18169 11701 18244 13556 17097C13473 16771 13339 16481 13113 16264C11503 17350 9974 17311 8515 16258C8270 16467 8108 16793 8052 17113Z" fill="#006AB3"/>
<path d="M9091 17328C9116 17269 9144 17214 9166 17158C9194 17100 9222 17044 9247 16988C9272 16996 9300 17008 9328 17019C9320 17061 9311 17102 9303 17144C9295 17186 9286 17230 9281 17272C9303 17233 9331 17200 9356 17164C9378 17130 9403 17094 9428 17058C9453 17063 9484 17074 9515 17086C9492 17144 9470 17200 9448 17258C9428 17317 9406 17378 9384 17434C9361 17428 9342 17423 9322 17414C9342 17373 9361 17322 9378 17278C9395 17233 9414 17186 9431 17141C9403 17183 9375 17225 9348 17267C9320 17308 9292 17353 9264 17395C9242 17386 9225 17381 9205 17375C9214 17320 9225 17272 9233 17225C9244 17175 9256 17127 9264 17080C9244 17125 9225 17169 9205 17214C9186 17261 9166 17303 9144 17350C9127 17345 9108 17334 9091 17328ZM9743 17540C9735 17476 9732 17411 9729 17347C9724 17278 9721 17214 9721 17150C9698 17144 9676 17139 9654 17133C9618 17186 9576 17236 9537 17289C9498 17342 9453 17395 9414 17445C9437 17450 9459 17459 9481 17467C9501 17445 9517 17420 9537 17395C9579 17409 9623 17420 9662 17434C9662 17462 9665 17489 9668 17520C9693 17528 9718 17534 9743 17540ZM9662 17367C9632 17359 9604 17350 9576 17345C9590 17320 9604 17300 9618 17283C9632 17261 9646 17242 9662 17222V17295C9662 17320 9662 17345 9662 17367ZM9818 17559C9832 17509 9843 17462 9857 17414C9868 17364 9882 17311 9896 17264C9866 17256 9835 17247 9804 17242C9810 17219 9815 17200 9821 17180C9902 17200 9985 17222 10069 17242C10066 17261 10061 17281 10058 17300C10024 17295 9994 17286 9960 17278C9949 17328 9938 17378 9924 17428C9913 17476 9902 17526 9888 17573C9866 17570 9841 17565 9818 17559ZM10052 17425C10047 17456 10044 17481 10047 17503C10049 17528 10058 17548 10069 17567C10094 17606 10133 17632 10186 17640C10239 17648 10283 17634 10320 17609C10339 17593 10353 17573 10364 17554C10375 17534 10384 17509 10386 17478C10389 17450 10389 17423 10386 17400C10384 17375 10373 17353 10361 17334C10336 17295 10297 17275 10250 17269C10222 17264 10200 17264 10178 17269C10161 17272 10144 17281 10127 17292C10111 17306 10100 17320 10086 17336C10072 17361 10061 17389 10052 17425ZM10122 17439C10130 17395 10147 17367 10166 17350C10189 17331 10214 17325 10239 17328C10267 17334 10289 17350 10303 17373C10317 17395 10320 17425 10314 17467C10311 17489 10306 17506 10300 17520C10292 17534 10283 17548 10272 17556C10250 17573 10225 17581 10197 17579C10166 17573 10147 17559 10133 17534C10119 17509 10116 17476 10122 17439ZM10743 17554C10743 17531 10746 17512 10746 17489C10799 17495 10852 17495 10904 17495V17567C10904 17590 10904 17615 10904 17640C10888 17654 10863 17668 10832 17676C10801 17690 10768 17693 10737 17690C10701 17690 10668 17682 10640 17665C10612 17648 10593 17623 10581 17593C10573 17576 10567 17562 10567 17545C10567 17528 10565 17512 10567 17495C10567 17476 10573 17459 10576 17442C10584 17425 10590 17409 10598 17395C10615 17370 10640 17347 10671 17331C10693 17320 10721 17314 10754 17317C10796 17317 10829 17328 10854 17350C10879 17367 10893 17392 10902 17425C10877 17434 10854 17437 10827 17439C10824 17423 10815 17409 10801 17398C10788 17386 10771 17381 10751 17381C10721 17381 10696 17389 10676 17409C10657 17428 10645 17459 10643 17498C10640 17520 10640 17537 10645 17554C10648 17570 10654 17584 10662 17595C10682 17615 10707 17629 10737 17629C10754 17632 10768 17629 10785 17623C10801 17615 10815 17609 10827 17601C10827 17587 10827 17570 10827 17556C10799 17554 10771 17554 10743 17554ZM10971 17687V17506C10969 17445 10969 17384 10969 17320C11019 17320 11066 17320 11116 17314C11152 17311 11180 17314 11197 17320C11214 17322 11228 17334 11239 17350C11250 17370 11255 17386 11255 17409C11258 17437 11255 17459 11242 17478C11225 17498 11203 17512 11172 17517C11189 17526 11200 17534 11211 17545C11222 17556 11236 17573 11255 17601C11272 17623 11292 17648 11306 17668C11278 17671 11247 17673 11216 17676C11197 17651 11177 17626 11161 17601C11138 17573 11125 17556 11119 17548C11111 17542 11105 17537 11094 17537C11088 17534 11074 17534 11060 17534C11055 17534 11049 17534 11049 17534C11044 17559 11044 17587 11047 17609C11047 17634 11047 17659 11047 17687C11021 17687 10999 17687 10971 17687ZM11044 17476C11060 17476 11077 17476 11097 17473C11130 17470 11152 17467 11161 17464C11169 17459 11175 17456 11180 17448C11183 17439 11186 17431 11186 17420C11183 17409 11180 17398 11175 17389C11166 17384 11158 17378 11147 17378C11141 17378 11125 17378 11097 17381C11077 17381 11060 17384 11041 17384C11041 17414 11044 17445 11044 17476ZM11317 17487C11314 17448 11314 17414 11325 17389C11331 17370 11339 17350 11350 17334C11364 17317 11375 17303 11392 17295C11411 17283 11434 17272 11462 17269C11512 17261 11551 17269 11587 17297C11604 17311 11618 17328 11631 17353C11640 17375 11648 17400 11654 17431C11659 17459 11659 17489 11657 17512C11654 17537 11643 17559 11631 17579C11604 17615 11565 17643 11512 17651C11459 17657 11411 17645 11375 17615C11358 17601 11347 17584 11336 17562C11325 17540 11320 17515 11317 17487ZM11389 17473C11395 17515 11409 17545 11428 17565C11450 17581 11473 17590 11503 17587C11531 17581 11553 17567 11570 17545C11576 17531 11581 17517 11584 17501C11584 17484 11584 17464 11581 17442C11576 17400 11562 17373 11542 17353C11523 17334 11501 17328 11470 17334C11442 17336 11420 17350 11406 17375C11389 17398 11386 17431 11389 17473ZM11701 17489C11726 17481 11746 17473 11768 17464C11776 17489 11790 17506 11801 17515C11818 17523 11835 17523 11854 17517C11879 17512 11893 17503 11904 17489C11913 17478 11916 17464 11913 17453C11910 17445 11907 17439 11899 17434C11893 17425 11885 17423 11871 17423C11863 17420 11846 17420 11815 17420C11776 17420 11748 17411 11732 17400C11707 17386 11693 17364 11687 17334C11684 17314 11684 17295 11693 17278C11698 17258 11709 17242 11726 17230C11740 17217 11760 17208 11785 17203C11824 17194 11854 17197 11882 17211C11904 17225 11921 17247 11932 17283C11910 17289 11890 17295 11868 17300C11863 17286 11851 17272 11840 17267C11829 17261 11815 17261 11796 17264C11779 17269 11765 17278 11757 17289C11748 17295 11748 17303 11748 17314C11751 17320 11757 17328 11762 17334C11774 17342 11796 17345 11829 17345C11863 17345 11890 17350 11907 17353C11924 17359 11941 17367 11952 17381C11963 17395 11974 17411 11980 17434C11985 17456 11982 17476 11980 17498C11971 17517 11960 17537 11941 17548C11924 17562 11899 17573 11871 17579C11824 17590 11790 17587 11760 17573C11735 17556 11712 17528 11701 17489ZM12016 17411C12030 17450 12052 17476 12080 17489C12108 17506 12144 17509 12186 17495C12214 17487 12236 17473 12253 17459C12267 17445 12278 17425 12283 17406C12286 17384 12283 17361 12278 17342C12269 17317 12261 17300 12247 17289C12233 17275 12219 17267 12202 17261C12186 17261 12158 17258 12127 17261C12094 17261 12072 17258 12060 17253C12055 17250 12049 17242 12046 17233C12044 17225 12044 17217 12052 17208C12058 17197 12072 17189 12088 17183C12108 17178 12122 17178 12130 17183C12144 17189 12152 17200 12161 17217C12180 17208 12202 17203 12222 17194C12208 17161 12191 17139 12166 17127C12141 17113 12111 17113 12072 17125C12049 17133 12030 17141 12016 17155C12002 17166 11991 17183 11988 17203C11982 17219 11982 17239 11988 17256C11996 17286 12010 17306 12035 17320C12055 17328 12080 17336 12119 17336C12150 17334 12166 17334 12175 17334C12186 17336 12194 17342 12202 17345C12208 17350 12211 17356 12214 17364C12219 17378 12216 17389 12211 17403C12202 17417 12189 17425 12166 17434C12147 17439 12130 17439 12113 17431C12099 17423 12088 17409 12077 17386C12058 17395 12035 17403 12016 17411ZM12292 17256C12283 17219 12275 17189 12278 17161C12278 17139 12280 17122 12286 17105C12294 17086 12303 17069 12314 17058C12328 17044 12344 17030 12370 17022C12409 17008 12448 17010 12487 17033C12503 17044 12520 17058 12537 17077C12548 17094 12565 17119 12576 17147C12587 17172 12592 17197 12598 17222C12598 17244 12598 17269 12592 17289C12578 17328 12548 17361 12506 17378C12459 17398 12417 17398 12378 17375C12358 17364 12344 17347 12328 17325C12314 17306 12303 17283 12292 17256ZM12353 17233C12370 17269 12389 17297 12411 17311C12434 17325 12456 17328 12484 17317C12506 17308 12523 17289 12528 17267C12534 17253 12534 17236 12531 17222C12528 17205 12523 17186 12514 17166C12498 17130 12481 17102 12459 17088C12436 17074 12414 17074 12392 17080C12367 17091 12353 17108 12344 17133C12339 17158 12342 17191 12353 17233Z" fill="white"/>
<path d="M8570 15467L8623 15501C8606 15529 8598 15548 8598 15565C8598 15584 8606 15598 8620 15612C8637 15629 8654 15632 8670 15629C8687 15629 8701 15621 8709 15609C8718 15598 8720 15590 8723 15582C8723 15573 8723 15565 8718 15554C8712 15543 8704 15529 8690 15504C8670 15473 8662 15445 8662 15423C8665 15389 8676 15362 8698 15336C8712 15320 8729 15306 8748 15295C8768 15286 8787 15284 8810 15286C8829 15289 8849 15300 8865 15317C8899 15342 8913 15370 8913 15403C8913 15437 8901 15467 8874 15501L8821 15459C8835 15440 8840 15426 8840 15412C8840 15395 8832 15384 8818 15373C8804 15362 8790 15353 8773 15356C8765 15359 8757 15362 8748 15370C8743 15378 8740 15389 8740 15398C8740 15412 8745 15431 8765 15459C8782 15487 8793 15509 8798 15529C8804 15545 8801 15565 8796 15587C8790 15609 8779 15629 8759 15651C8743 15668 8723 15682 8701 15693C8679 15704 8656 15710 8637 15704C8617 15701 8592 15690 8573 15671C8537 15643 8523 15612 8523 15582C8523 15545 8537 15509 8570 15467ZM8280 15389L8601 15077L8645 15125L8322 15437L8280 15389ZM7980 15061L8311 14763L8353 14810L8219 15108L8439 14910L8481 14955L8147 15253L8105 15203L8236 14913L8019 15105L7980 15061ZM7687 14668L8049 14403L8108 14481L7899 14707L8175 14576L8233 14654L7868 14921L7835 14869L8122 14660L7798 14818L7759 14765L8010 14506L7720 14715L7687 14668ZM7648 14155C7687 14133 7720 14116 7751 14108C7773 14103 7796 14103 7818 14103C7840 14103 7854 14108 7874 14116C7893 14125 7910 14142 7924 14161C7949 14203 7952 14242 7932 14289C7915 14331 7876 14373 7815 14409C7757 14448 7701 14465 7654 14462C7606 14462 7570 14440 7545 14401C7523 14362 7520 14320 7537 14275C7556 14233 7592 14192 7648 14155ZM7687 14211C7645 14236 7617 14261 7606 14289C7595 14317 7595 14342 7606 14362C7620 14381 7643 14395 7673 14395C7701 14395 7740 14378 7779 14353C7824 14328 7849 14300 7863 14275C7876 14250 7876 14225 7860 14203C7843 14181 7824 14169 7796 14169C7765 14169 7729 14183 7687 14211Z" fill="white"/>
<path d="M11247 14033C11247 14061 11111 14094 10943 14094C10771 14094 10634 14061 10634 14033V14080C10634 14114 10771 14144 10943 14144C11111 14144 11250 14114 11250 14080L11247 14033Z" fill="#9C9E9F"/>
<path d="M10807 14089V14133C10863 14144 11049 14142 11094 14133V14089C11044 14097 10907 14105 10807 14089Z" fill="#A6A8AA"/>
<path d="M10827 14089V14133C10879 14139 11027 14139 11072 14133V14089C11021 14097 10910 14100 10827 14089Z" fill="#B1B3B4"/>
<path d="M10846 14094V14142C10891 14144 11005 14142 11055 14139V14094C11002 14097 10913 14100 10846 14094Z" fill="#BDBFC0"/>
<path d="M10860 14094V14142C10899 14144 10999 14142 11041 14139V14094C10994 14100 10921 14100 10860 14094Z" fill="#C7C9CA"/>
<path d="M10871 14097V14139C10904 14142 10991 14139 11024 14136V14097C10982 14100 10924 14100 10871 14097Z" fill="#CFD0D2"/>
<path d="M10882 14097V14142C10910 14144 10980 14142 11010 14139V14097C10974 14097 10927 14100 10882 14097Z" fill="#D9DADB"/>
<path d="M10893 14097V14142C10916 14144 10980 14142 11005 14139V14097C10971 14097 10932 14100 10893 14097Z" fill="#E2E3E4"/>
<path d="M10902 14097V14142C10921 14144 10974 14142 10996 14139V14097C10969 14097 10935 14100 10902 14097Z" fill="#EEEEEF"/>
<path d="M10943 14097C11113 14097 11250 14066 11250 14033C11250 14005 11113 13988 10943 13988C10771 13988 10634 14005 10634 14033C10634 14066 10771 14097 10943 14097Z" fill="#9C9E9F"/>
<path d="M11216 13997C11216 14022 11099 14044 10949 14044C10799 14044 10679 14022 10679 14000V14025C10679 14047 10801 14072 10949 14072C11102 14072 11216 14050 11216 14027V13997Z" fill="#9C9E9F"/>
<path d="M10799 14036V14066C10854 14077 11038 14072 11086 14066V14036C11035 14041 10899 14050 10799 14036Z" fill="#A6A8AA"/>
<path d="M10818 14036V14066C10871 14072 11019 14072 11063 14066V14036C11010 14041 10902 14047 10818 14036Z" fill="#B1B3B4"/>
<path d="M10838 14038V14064C10885 14069 10994 14069 11047 14066V14038C10994 14041 10907 14044 10838 14038Z" fill="#BDBFC0"/>
<path d="M10854 14041V14066C10891 14069 10991 14069 11033 14066V14041C10985 14041 10913 14044 10854 14041Z" fill="#C7C9CA"/>
<path d="M10866 14041V14069C10899 14069 10982 14069 11016 14066V14041C10977 14044 10916 14044 10866 14041Z" fill="#CFD0D2"/>
<path d="M10877 14041V14066C10904 14069 10977 14066 11008 14066V14041C10969 14041 10924 14044 10877 14041Z" fill="#D9DADB"/>
<path d="M10888 14041V14066C10910 14069 10971 14066 10996 14066V14041C10963 14041 10927 14044 10888 14041Z" fill="#E2E3E4"/>
<path d="M10893 14041V14066C10921 14069 10957 14069 10988 14066V14041C10960 14041 10927 14044 10893 14041Z" fill="#EEEEEF"/>
<path d="M10946 14044C11097 14044 11216 14022 11216 13994C11216 13969 11097 13949 10946 13949C10796 13949 10679 13969 10679 13994C10679 14019 10796 14044 10946 14044Z" fill="#9C9E9F"/>
<path d="M11395 13816C11598 13816 11751 13774 11754 13746C11754 13743 11598 13710 11397 13710C11197 13710 11058 13735 11058 13743C11058 13768 11194 13816 11395 13816Z" fill="#9C9E9F"/>
<path d="M11417 13816C11604 13816 11754 13766 11754 13749C11707 13830 11598 13922 11406 13922C11211 13922 11102 13830 11058 13749C11072 13771 11205 13816 11395 13816H11417Z" fill="#9C9E9F"/>
<path d="M10985 12696H10902V12844H10985V12696Z" fill="#9C9E9F"/>
<path d="M10905 12736C10880 12724 10790 12683 10712 12719C10637 12755 10576 12800 10520 12752C10476 12716 10442 12777 10462 12800C10481 12819 10509 12811 10509 12786C10551 12805 10626 12822 10673 12797C10751 12755 10846 12769 10905 12805V12736Z" fill="#9C9E9F"/>
<path d="M10458 12776C10458 12742 10438 12751 10438 12759C10419 12759 10424 12801 10438 12804C10444 12818 10458 12820 10458 12776Z" fill="#9C9E9F"/>
<path d="M10491 12810C10518 12860 10477 12874 10474 12860C10465 12821 10438 12846 10452 12871C10468 12891 10499 12891 10513 12874C10530 12855 10510 12802 10510 12802L10491 12810Z" fill="#9C9E9F"/>
<path d="M10475 12858C10489 12858 10492 12858 10492 12858C10492 12871 10495 12880 10492 12899C10512 12899 10514 12891 10514 12908C10514 12944 10514 13022 10528 13030C10537 13036 10548 13014 10559 13025C10570 13036 10556 13055 10528 13047C10503 13041 10503 12994 10503 12966H10489V13014C10489 13033 10509 13058 10484 13058C10461 13058 10478 13033 10478 13014C10481 13000 10478 12966 10478 12966H10464C10464 12983 10464 13058 10425 13050C10400 13044 10403 13022 10414 13022C10431 13022 10436 13050 10448 13014C10453 13002 10459 12952 10459 12922C10459 12891 10456 12897 10475 12897V12858Z" fill="#9C9E9F"/>
<path d="M10918 13966L10874 13924L10916 13883H10966L11008 13924L10963 13966H10918Z" fill="#9C9E9F"/>
<path d="M10982 12741C11002 12727 11094 12685 11169 12722C11244 12755 11308 12802 11361 12755C11406 12719 11445 12780 11420 12802C11400 12822 11372 12813 11372 12788C11331 12808 11255 12825 11211 12800C11133 12758 11035 12769 10982 12808V12741Z" fill="#9C9E9F"/>
<path d="M11425 12778C11425 12745 11439 12753 11445 12764C11464 12764 11462 12800 11445 12800C11434 12820 11425 12823 11425 12778Z" fill="#9C9E9F"/>
<path d="M11395 12813C11364 12866 11406 12883 11409 12863C11420 12830 11450 12849 11431 12877C11411 12897 11386 12897 11370 12880C11356 12858 11372 12805 11372 12805L11395 12813Z" fill="#9C9E9F"/>
<path d="M11409 12860C11397 12860 11392 12860 11392 12860V12899C11375 12902 11372 12897 11372 12913C11372 12949 11372 13027 11356 13036C11350 13044 11336 13019 11328 13030C11319 13044 11331 13061 11353 13055C11384 13047 11381 12997 11381 12969H11395V13022C11395 13039 11378 13064 11400 13064C11423 13064 11409 13039 11409 13019C11406 13002 11409 12969 11409 12969H11420C11420 12986 11420 13066 11464 13055C11489 13047 11484 13027 11470 13027C11453 13027 11450 13058 11436 13022C11431 13005 11428 12958 11428 12927C11428 12894 11428 12899 11409 12899V12860Z" fill="#9C9E9F"/>
<path d="M10437 13030L10178 13738" stroke="#1B1918" stroke-width="7"/>
<path d="M10520 13030L10793 13743" stroke="#1B1918" stroke-width="7"/>
<path d="M11356 13033L11105 13735" stroke="#1B1918" stroke-width="7"/>
<path d="M11400 13061V13813" stroke="#1B1918" stroke-width="7"/>
<path d="M11445 13033L11701 13738" stroke="#1B1918" stroke-width="7"/>
<path d="M10957 12841L10977 12860L10960 12877L10977 12897V12899V13885H10907V12897L10921 12877L10907 12860L10927 12841H10957Z" fill="#9C9E9F"/>
<path d="M10938 12651C10963 12651 10985 12632 10985 12607C10985 12579 10963 12562 10938 12562C10916 12562 10896 12579 10896 12607C10896 12632 10916 12651 10938 12651Z" fill="#9C9E9F"/>
<path d="M10985 12702H10902C10902 12702 10924 12693 10924 12646H10960C10960 12676 10960 12682 10985 12702Z" fill="#9C9E9F"/>
<path d="M11743 13757C11712 13746 11509 13718 11428 13721C11434 13741 11434 13755 11462 13780C11534 13771 11604 13788 11637 13794C11673 13788 11715 13777 11743 13757Z" fill="#9C9E9F"/>
<path d="M11721 13752C11673 13740 11523 13721 11450 13721C11453 13735 11453 13752 11475 13779C11512 13768 11604 13788 11631 13791C11654 13788 11707 13763 11721 13752Z" fill="#A6A8AA"/>
<path d="M11707 13746C11682 13740 11526 13721 11470 13721C11470 13738 11470 13746 11492 13774C11520 13774 11604 13785 11629 13791C11651 13785 11696 13760 11707 13746Z" fill="#B1B3B4"/>
<path d="M11693 13746C11668 13738 11534 13724 11487 13724C11487 13738 11492 13760 11506 13777C11528 13777 11601 13785 11623 13791C11637 13785 11682 13760 11693 13746Z" fill="#BDBFC0"/>
<path d="M11679 13746C11657 13738 11540 13727 11501 13727C11501 13740 11501 13754 11517 13779C11537 13777 11598 13788 11618 13791C11631 13788 11670 13754 11679 13746Z" fill="#C7C9CA"/>
<path d="M11665 13740C11640 13735 11542 13727 11512 13727C11514 13743 11512 13752 11523 13777C11548 13779 11595 13785 11612 13788C11623 13785 11657 13752 11665 13740Z" fill="#CFD0D2"/>
<path d="M11651 13738C11634 13732 11548 13727 11523 13727C11523 13749 11523 13754 11531 13779C11548 13779 11592 13788 11609 13788C11618 13788 11643 13752 11651 13738Z" fill="#D9DADB"/>
<path d="M11643 13738C11629 13732 11553 13727 11531 13727C11531 13746 11531 13754 11540 13779C11556 13782 11592 13788 11604 13788C11612 13788 11640 13749 11643 13738Z" fill="#E2E3E4"/>
<path d="M10902 12629C10907 12624 10910 12629 10916 12607C10938 12654 10966 12615 10966 12585C10982 12596 10982 12607 10980 12629C10971 12640 10949 12651 10941 12651C10932 12649 10913 12651 10902 12629Z" fill="#636465"/>
<path d="M10481 12933C10492 12933 10498 12924 10498 12922C10498 12910 10492 12908 10481 12908C10478 12908 10473 12910 10473 12922C10473 12924 10478 12933 10481 12933Z" fill="white"/>
<path d="M11403 12933C11409 12933 11414 12924 11414 12922C11414 12910 11409 12908 11403 12908C11392 12908 11389 12910 11389 12922C11389 12924 11392 12933 11403 12933Z" fill="white"/>
<path d="M10957 12902H10918V13880H10957V12902Z" fill="#A6A8AA"/>
<path d="M10952 12902H10918V13880H10952V12902Z" fill="#B1B3B4"/>
<path d="M10952 12902H10924V13880H10952V12902Z" fill="#BDBFC0"/>
<path d="M10949 12902H10924V13880H10949V12902Z" fill="#C7C9CA"/>
<path d="M10946 12902H10924V13880H10946V12902Z" fill="#CFD0D2"/>
<path d="M10501 13818C10679 13818 10832 13766 10838 13752C10788 13832 10682 13924 10487 13924C10297 13924 10189 13832 10141 13752C10152 13771 10289 13818 10476 13818H10501Z" fill="#9C9E9F"/>
<path d="M10476 13818C10676 13818 10832 13777 10838 13752C10838 13749 10679 13713 10478 13713C10281 13713 10141 13740 10141 13749C10139 13771 10278 13818 10476 13818Z" fill="#919394"/>
<path d="M10838 13752C10801 13740 10595 13718 10520 13718C10523 13735 10523 13749 10554 13777C10623 13768 10698 13785 10729 13791C10765 13785 10810 13774 10838 13752Z" fill="#9C9E9F"/>
<path d="M10815 13752C10768 13740 10615 13718 10542 13718C10545 13738 10545 13752 10570 13777C10604 13768 10696 13788 10723 13791C10746 13788 10804 13763 10815 13752Z" fill="#A6A8AA"/>
<path d="M10796 13749C10768 13740 10612 13721 10559 13721C10562 13735 10559 13749 10581 13777C10609 13777 10696 13785 10718 13791C10735 13788 10785 13757 10796 13749Z" fill="#B1B3B4"/>
<path d="M10782 13743C10757 13738 10623 13721 10576 13721C10579 13735 10581 13757 10593 13774C10620 13774 10690 13785 10712 13788C10729 13785 10771 13757 10782 13743Z" fill="#BDBFC0"/>
<path d="M10768 13740C10749 13738 10629 13724 10590 13724C10593 13738 10590 13749 10604 13774C10626 13774 10687 13785 10707 13788C10721 13785 10760 13752 10768 13740Z" fill="#C7C9CA"/>
<path d="M10754 13740C10729 13735 10634 13727 10601 13727C10604 13740 10601 13749 10615 13774C10637 13777 10687 13785 10701 13788C10712 13785 10746 13752 10754 13740Z" fill="#CFD0D2"/>
<path d="M10740 13738C10723 13732 10637 13727 10609 13727C10609 13749 10612 13754 10620 13779C10637 13779 10682 13788 10696 13788C10704 13788 10735 13752 10740 13738Z" fill="#D9DADB"/>
<path d="M10732 13738C10715 13735 10645 13727 10620 13727C10623 13746 10620 13754 10629 13779C10645 13782 10682 13788 10693 13788C10701 13785 10726 13749 10732 13738Z" fill="#E2E3E4"/>
<path d="M10481 13924C10512 13922 10540 13919 10548 13910C10573 13891 10590 13832 10593 13813C10573 13813 10548 13816 10498 13816H10473C10425 13816 10378 13813 10361 13813C10367 13846 10389 13891 10414 13910C10425 13919 10450 13922 10481 13924Z" fill="#A6A8AA"/>
<path d="M10481 13924C10506 13922 10528 13919 10540 13910C10559 13891 10570 13835 10573 13816C10559 13816 10537 13818 10495 13818H10473C10434 13818 10395 13816 10381 13816C10384 13846 10403 13891 10423 13910C10431 13919 10456 13922 10481 13924Z" fill="#B1B3B4"/>
<path d="M10487 13924C10506 13922 10526 13919 10534 13910C10551 13891 10562 13835 10565 13816C10551 13818 10531 13818 10498 13818H10478C10445 13818 10411 13816 10400 13816C10403 13849 10420 13891 10437 13910C10442 13919 10462 13922 10487 13924Z" fill="#BDBFC0"/>
<path d="M10481 13922C10501 13919 10517 13913 10523 13908C10537 13888 10548 13832 10551 13816H10492H10481C10448 13816 10420 13816 10409 13816C10409 13844 10425 13888 10439 13908C10445 13913 10464 13919 10481 13922Z" fill="#C7C9CA"/>
<path d="M10481 13924C10498 13922 10515 13919 10520 13910C10531 13891 10542 13835 10542 13818H10489H10481H10420C10423 13849 10434 13891 10448 13910C10453 13919 10467 13922 10481 13924Z" fill="#CFD0D2"/>
<path d="M10484 13924C10495 13922 10506 13919 10509 13910C10517 13891 10523 13838 10526 13818C10517 13818 10509 13818 10489 13818H10478H10439C10439 13849 10448 13891 10456 13910C10459 13919 10470 13922 10484 13924Z" fill="#D9DADB"/>
<path d="M10484 13924C10492 13922 10501 13919 10506 13910C10512 13891 10517 13838 10520 13818H10489H10478H10445C10445 13849 10450 13891 10462 13910C10464 13919 10473 13922 10484 13924Z" fill="#E2E3E4"/>
<path d="M11400 13919C11428 13916 11459 13913 11467 13905C11489 13885 11506 13830 11512 13810C11492 13810 11464 13813 11417 13813H11392C11345 13813 11297 13810 11281 13810C11286 13841 11308 13885 11333 13905C11342 13913 11370 13916 11400 13919Z" fill="#A6A8AA"/>
<path d="M11403 13919C11428 13916 11453 13913 11459 13905C11478 13885 11492 13830 11495 13813C11481 13813 11459 13813 11417 13813H11395C11353 13813 11317 13813 11300 13813C11303 13844 11325 13885 11345 13905C11350 13913 11375 13916 11403 13919Z" fill="#B1B3B4"/>
<path d="M11406 13919C11425 13916 11445 13913 11450 13905C11470 13885 11478 13830 11481 13813C11470 13813 11450 13813 11417 13813H11397C11361 13813 11328 13813 11320 13813C11322 13844 11336 13885 11353 13905C11361 13913 11381 13916 11406 13919Z" fill="#BDBFC0"/>
<path d="M11400 13919C11420 13919 11436 13916 11442 13905C11456 13885 11467 13832 11470 13813H11411H11395C11367 13813 11336 13813 11328 13813C11328 13844 11345 13885 11358 13905C11364 13916 11381 13919 11400 13919Z" fill="#C7C9CA"/>
<path d="M11400 13919C11417 13916 11434 13913 11439 13905C11453 13885 11459 13835 11462 13816H11409H11397H11339C11342 13844 11353 13885 11364 13905C11372 13913 11386 13916 11400 13919Z" fill="#CFD0D2"/>
<path d="M11403 13919C11414 13916 11425 13913 11431 13905C11436 13885 11445 13835 11445 13816C11436 13816 11428 13816 11409 13816H11403H11358C11361 13844 11367 13885 11375 13905C11381 13913 11389 13916 11403 13919Z" fill="#D9DADB"/>
<path d="M11403 13919C11411 13916 11420 13913 11423 13905C11431 13885 11436 13835 11439 13816H11409H11397H11364C11364 13844 11372 13885 11381 13905C11384 13913 11392 13916 11403 13919Z" fill="#E2E3E4"/>
<path d="M10938 12685C10963 12685 10985 12688 10985 12671C10985 12660 10963 12660 10938 12660C10913 12660 10896 12660 10896 12671C10896 12688 10907 12685 10938 12685Z" fill="#9C9E9F"/>
<path d="M10481 13055V13813" stroke="#1B1918" stroke-width="7"/>
<path d="M12342 15389C13010 14930 13389 14373 13684 13788L14550 14105C14174 15063 13531 15857 12498 16403L12091 15905L12342 15389Z" stroke="#1B1918" stroke-width="46"/>
<path d="M12342 15389C13010 14930 13389 14373 13684 13788L14550 14105C14174 15063 13531 15857 12498 16403L12091 15905L12342 15389Z" fill="#E30016"/>
<path d="M12158 16116L12478 16445L12929 15763L12158 16116Z" stroke="#1B1918" stroke-width="46" stroke-linejoin="round"/>
<path d="M12158 16116L12478 16445L12929 15763L12158 16116Z" fill="#E30016"/>
<path d="M9378 15069C10359 15640 11339 15710 12319 15055L12932 15771C11534 16698 10147 16637 8774 15754L9378 15069Z" stroke="#1B1918" stroke-width="46" stroke-linejoin="round"/>
<path d="M9378 15069C10359 15640 11339 15710 12319 15055L12932 15771C11534 16698 10147 16637 8774 15754L9378 15069Z" fill="#E30016"/>
<path d="M14158 14456L13779 14253L13885 14050L13952 14083L13871 14231L13957 14275L14030 14139L14094 14172L14018 14311L14124 14367L14205 14211L14269 14245L14158 14456ZM13890 14615L13832 14570L13910 14459L14049 14559C14055 14579 14057 14607 14055 14632C14052 14660 14041 14685 14027 14707C14010 14732 13985 14749 13954 14760C13927 14768 13893 14768 13857 14760C13823 14749 13787 14732 13754 14707C13715 14682 13687 14654 13668 14621C13645 14593 13637 14559 13634 14529C13634 14501 13645 14479 13659 14454C13681 14423 13709 14403 13740 14398C13771 14392 13804 14401 13840 14417L13818 14479C13798 14467 13779 14467 13762 14470C13746 14473 13732 14481 13720 14498C13707 14520 13701 14543 13712 14570C13723 14598 13748 14626 13787 14651C13832 14682 13865 14696 13896 14699C13927 14699 13949 14687 13966 14665C13971 14657 13977 14643 13979 14626C13979 14615 13979 14598 13977 14584L13932 14554L13890 14615ZM13715 15114L13372 14846L13514 14662L13573 14710L13470 14841L13545 14905L13645 14777L13701 14821L13606 14947L13698 15019L13804 14877L13860 14927L13715 15114ZM13509 15336L13183 15061L13225 15013L13495 15242L13598 15122L13654 15169L13509 15336ZM13147 15476L13016 15373L13077 15526L13147 15476ZM13339 15543L13283 15584L13205 15520L13105 15595L13141 15690L13088 15729L12932 15311L12982 15270L13339 15543Z" fill="white"/>
<path d="M12166 15835L12222 15796C12239 15824 12255 15841 12272 15849C12292 15855 12311 15855 12328 15846C12350 15838 12361 15824 12364 15807C12370 15790 12370 15774 12361 15760C12356 15749 12350 15740 12342 15738C12333 15732 12325 15729 12311 15729C12303 15729 12283 15732 12253 15735C12214 15740 12183 15738 12161 15726C12130 15710 12108 15687 12091 15654C12080 15632 12074 15607 12074 15582C12074 15562 12080 15540 12091 15523C12102 15504 12122 15490 12147 15478C12183 15459 12219 15456 12250 15473C12280 15484 12306 15509 12328 15548L12267 15582C12253 15562 12239 15548 12228 15545C12214 15540 12197 15543 12180 15548C12161 15556 12150 15570 12144 15584C12141 15595 12144 15607 12147 15621C12152 15629 12161 15637 12169 15643C12183 15646 12205 15646 12239 15643C12275 15637 12303 15634 12322 15640C12342 15643 12361 15651 12378 15665C12395 15679 12409 15701 12422 15729C12436 15751 12439 15777 12442 15804C12442 15829 12436 15852 12422 15871C12409 15888 12389 15907 12364 15919C12325 15938 12289 15941 12255 15927C12222 15910 12191 15880 12166 15835ZM12102 16010L12027 16030L11971 15930L11840 15966V16080L11768 16100L11779 15601L11851 15582L12102 16010ZM11932 15860L11840 15701V15885L11932 15860ZM11528 16164L11456 15777L11356 15793L11339 15715L11606 15665L11623 15743L11523 15763L11598 16153L11528 16164ZM10994 16066L11060 16052C11066 16083 11074 16108 11088 16122C11102 16136 11119 16144 11138 16144C11161 16141 11180 16133 11191 16119C11200 16108 11205 16091 11203 16075C11203 16061 11200 16052 11197 16047C11191 16038 11183 16030 11169 16027C11161 16022 11144 16013 11113 16005C11077 15994 11052 15980 11035 15960C11013 15935 11002 15905 10999 15868C10999 15843 11002 15821 11010 15799C11021 15777 11035 15763 11052 15749C11069 15738 11091 15732 11119 15732C11161 15729 11197 15740 11216 15768C11242 15790 11253 15824 11255 15868L11189 15874C11183 15852 11175 15835 11166 15824C11155 15813 11141 15810 11122 15810C11102 15810 11086 15816 11074 15829C11066 15838 11063 15846 11063 15860C11066 15871 11069 15880 11074 15888C11086 15896 11108 15907 11141 15916C11175 15927 11200 15935 11216 15946C11233 15958 11247 15974 11255 15994C11267 16013 11272 16041 11272 16072C11272 16100 11269 16125 11261 16147C11250 16172 11236 16189 11214 16203C11197 16214 11172 16222 11141 16222C11099 16225 11063 16211 11041 16183C11016 16158 11002 16119 10994 16066ZM10573 16214L10612 15740L10866 15760L10857 15838L10673 15824L10665 15930L10838 15944L10829 16022L10659 16008L10648 16139L10840 16155L10832 16233L10573 16214ZM10228 16155L10300 15768L10203 15749L10217 15671L10484 15721L10467 15799L10367 15779L10297 16169L10228 16155ZM9740 15771C9757 15726 9776 15687 9796 15662C9813 15643 9829 15623 9849 15612C9866 15595 9885 15587 9905 15582C9930 15579 9955 15582 9980 15590C10027 15607 10058 15643 10072 15696C10086 15746 10080 15807 10055 15880C10027 15952 9994 16002 9952 16038C9910 16069 9866 16075 9815 16058C9768 16038 9737 16002 9724 15952C9710 15902 9715 15843 9740 15771ZM9810 15790C9790 15843 9785 15885 9793 15916C9802 15946 9818 15969 9843 15977C9871 15985 9893 15983 9921 15960C9946 15941 9969 15907 9988 15855C10008 15802 10013 15763 10005 15732C9999 15701 9980 15679 9952 15671C9927 15660 9902 15665 9874 15687C9849 15707 9827 15740 9810 15790ZM9336 15838L9526 15403L9629 15445C9668 15462 9690 15476 9701 15487C9718 15501 9726 15523 9726 15548C9729 15576 9724 15607 9707 15643C9696 15671 9682 15690 9668 15707C9654 15721 9637 15732 9623 15738C9607 15743 9593 15743 9579 15743C9565 15740 9540 15732 9512 15721L9470 15701L9398 15863L9336 15838ZM9559 15504L9503 15629L9537 15643C9565 15654 9581 15660 9590 15660C9601 15660 9609 15654 9620 15646C9629 15637 9637 15629 9643 15615C9648 15598 9654 15582 9648 15570C9648 15556 9643 15545 9632 15540C9626 15534 9612 15526 9590 15517L9559 15504Z" fill="white"/>
<path d="M10863 18743C8916 18743 6919 18342 4860 17242V19411V20473C6874 21266 8877 21626 10863 21626C12851 21626 14854 21266 16868 20473V19411V17242C14809 18342 12812 18743 10863 18743Z" stroke="#070B04" stroke-width="122" stroke-linejoin="round"/>
<path d="M10863 18743C8916 18743 6919 18342 4860 17242V19411V20473C6874 21266 8877 21626 10863 21626C12851 21626 14854 21266 16868 20473V19411V17242C14809 18342 12812 18743 10863 18743Z" fill="#C6A743"/>
<path d="M8126 20119L8594 20378C8530 20509 8452 20617 8360 20695C8268 20773 8165 20823 8048 20848C7931 20873 7789 20868 7625 20834C7424 20790 7269 20726 7154 20642C7040 20556 6951 20428 6892 20263C6834 20096 6828 19899 6873 19673C6940 19367 7071 19149 7266 19021C7463 18893 7709 18862 8007 18924C8238 18974 8408 19057 8522 19180C8633 19303 8703 19470 8725 19679L8199 19681C8193 19623 8185 19578 8171 19548C8149 19497 8115 19456 8076 19419C8034 19386 7984 19364 7929 19353C7801 19325 7689 19355 7600 19447C7530 19511 7480 19626 7444 19790C7399 19993 7402 20141 7447 20230C7494 20316 7572 20375 7684 20397C7792 20422 7881 20408 7951 20358C8018 20311 8079 20230 8126 20119ZM9098 19127L9678 19180L9508 21057L8926 21004L9098 19127ZM9862 19233L10469 19222L10912 20573L11310 19211L11898 19199L11229 21096L10600 21105L9862 19233ZM12056 19147L12636 19074L12867 20946L12290 21018L12056 19147ZM13034 19024L13602 18901L13900 20289L14789 20096L14886 20548L13432 20865L13034 19024Z" fill="#070B04"/>
</g>
</svg>
