<svg id="visual" viewBox="0 0 900 600" width="900" height="600" xmlns="http://www.w3.org/2000/svg" xmlns:xlink="http://www.w3.org/1999/xlink" version="1.1"><rect x="0" y="0" width="900" height="600" fill="#0c1117"></rect><path d="M0 449L16.7 454.8C33.3 460.7 66.7 472.3 100 468.5C133.3 464.7 166.7 445.3 200 429.7C233.3 414 266.7 402 300 397.8C333.3 393.7 366.7 397.3 400 400.5C433.3 403.7 466.7 406.3 500 416.7C533.3 427 566.7 445 600 461.2C633.3 477.3 666.7 491.7 700 489.3C733.3 487 766.7 468 800 452.8C833.3 437.7 866.7 426.3 883.3 420.7L900 415L900 601L883.3 601C866.7 601 833.3 601 800 601C766.7 601 733.3 601 700 601C666.7 601 633.3 601 600 601C566.7 601 533.3 601 500 601C466.7 601 433.3 601 400 601C366.7 601 333.3 601 300 601C266.7 601 233.3 601 200 601C166.7 601 133.3 601 100 601C66.7 601 33.3 601 16.7 601L0 601Z" fill="#ed8936" stroke-linecap="round" stroke-linejoin="miter"></path></svg>